<?xml version="1.0" encoding="UTF-8" standalone="yes"?>
<svg xmlns="http://www.w3.org/2000/svg" xmlns:xlink="http://www.w3.org/1999/xlink" contentstyletype="text/css" data-diagram-type="SEQUENCE" height="1895px" preserveAspectRatio="none" style="width:1259px;height:1895px;background:#FFFFFF;" version="1.1" viewBox="0 0 1259 1895" width="1259px" zoomAndPan="magnify" xmlns:xhtml="http://www.w3.org/1999/xhtml"><style>
             .markmap-foreign div { color: #333 !important; }
             .markmap-foreign strong { font-weight: bold !important; }
             .markmap-foreign table { border-collapse: collapse !important; }
             .markmap-foreign th, .markmap-foreign td { border: 1px solid #333 !important; padding: 3px !important; }
             .markmap-node > circle { fill: #fff !important; }</style><title>Сценарий 2: Аутентификация оператора и просмотр журнала событий</title><defs></defs><g><text fill="#000000" font-family="sans-serif" font-size="14" font-weight="bold" lengthAdjust="spacing" textLength="577.418" x="336.8164" y="27.9951">Сценарий 2: Аутентификация оператора и просмотр журнала событий</text><rect fill="none" height="381.7969" style="stroke:#000000;stroke-width:1.5;" width="1135.2803" x="10" y="428.3516"></rect><rect fill="none" height="364.7266" style="stroke:#000000;stroke-width:1.5;" width="861.8721" x="268.9292" y="1042.2109"></rect><g class="participant-lifeline" data-entity-uid="part1" data-qualified-name="User" id="part1-lifeline"><g><title>........</title><rect fill="#000000" fill-opacity="0.00000" height="1679.7734" width="8" x="54.9297" y="120.8906"></rect><line style="stroke:#181818;stroke-width:0.5;stroke-dasharray:5,5;" x1="58" x2="58" y1="120.8906" y2="1800.6641"></line></g></g><g class="participant-lifeline" data-entity-uid="part2" data-qualified-name="Frontend" id="part2-lifeline"><g><title>React Frontend</title><rect fill="#000000" fill-opacity="0.00000" height="1679.7734" width="8" x="335.7622" y="120.8906"></rect><line style="stroke:#181818;stroke-width:0.5;stroke-dasharray:5,5;" x1="338.9292" x2="338.9292" y1="120.8906" y2="1800.6641"></line></g></g><g class="participant-lifeline" data-entity-uid="part3" data-qualified-name="Nginx" id="part3-lifeline"><g><title>Nginx</title><rect fill="#000000" fill-opacity="0.00000" height="1679.7734" width="8" x="622.0981" y="120.8906"></rect><line style="stroke:#181818;stroke-width:0.5;stroke-dasharray:5,5;" x1="625.293" x2="625.293" y1="120.8906" y2="1800.6641"></line></g></g><g class="participant-lifeline" data-entity-uid="part4" data-qualified-name="Backend" id="part4-lifeline"><g><title>FastAPI Backend</title><rect fill="#000000" fill-opacity="0.00000" height="1679.7734" width="8" x="901.8198" y="120.8906"></rect><line style="stroke:#181818;stroke-width:0.5;stroke-dasharray:5,5;" x1="905.6323" x2="905.6323" y1="120.8906" y2="1800.6641"></line></g></g><g class="participant-lifeline" data-entity-uid="part5" data-qualified-name="ES" id="part5-lifeline"><g><title>ElasticSearch</title><rect fill="#000000" fill-opacity="0.00000" height="1679.7734" width="8" x="1189.3999" y="120.8906"></rect><line style="stroke:#181818;stroke-width:0.5;stroke-dasharray:5,5;" x1="1192.749" x2="1192.749" y1="120.8906" y2="1800.6641"></line></g></g><g class="participant participant-head" data-entity-uid="part1" data-qualified-name="User" id="part1-head"><text fill="#000000" font-family="sans-serif" font-size="14" lengthAdjust="spacing" textLength="71.8594" x="20" y="117.5889">Оператор</text><ellipse cx="58.9297" cy="53.0938" fill="#E2E2F0" rx="8" ry="8" style="stroke:#181818;stroke-width:0.5;"></ellipse><path d="M58.9297,61.0938 L58.9297,88.0938 M45.9297,69.0938 L71.9297,69.0938 M58.9297,88.0938 L45.9297,103.0938 M58.9297,88.0938 L71.9297,103.0938" fill="none" style="stroke:#181818;stroke-width:0.5;"></path></g><g class="participant participant-tail" data-entity-uid="part1" data-qualified-name="User" id="part1-tail"><text fill="#000000" font-family="sans-serif" font-size="14" lengthAdjust="spacing" textLength="71.8594" x="20" y="1812.6592">Оператор</text><ellipse cx="58.9297" cy="1824.4609" fill="#E2E2F0" rx="8" ry="8" style="stroke:#181818;stroke-width:0.5;"></ellipse><path d="M58.9297,1832.4609 L58.9297,1859.4609 M45.9297,1840.4609 L71.9297,1840.4609 M58.9297,1859.4609 L45.9297,1874.4609 M58.9297,1859.4609 L71.9297,1874.4609" fill="none" style="stroke:#181818;stroke-width:0.5;"></path></g><g class="participant participant-head" data-entity-uid="part2" data-qualified-name="Frontend" id="part2-head"><rect fill="#E2E2F0" height="46.5938" rx="2.5" ry="2.5" style="stroke:#181818;stroke-width:0.5;" width="121.666" x="278.9292" y="73.2969"></rect><text fill="#000000" font-family="sans-serif" font-size="14" lengthAdjust="spacing" textLength="107.666" x="285.9292" y="93.292">React Frontend</text><text fill="#000000" font-family="sans-serif" font-size="14" lengthAdjust="spacing" textLength="103.7832" x="287.8706" y="109.5889">(Инфопанель)</text></g><g class="participant participant-tail" data-entity-uid="part2" data-qualified-name="Frontend" id="part2-tail"><rect fill="#E2E2F0" height="46.5938" rx="2.5" ry="2.5" style="stroke:#181818;stroke-width:0.5;" width="121.666" x="278.9292" y="1799.6641"></rect><text fill="#000000" font-family="sans-serif" font-size="14" lengthAdjust="spacing" textLength="107.666" x="285.9292" y="1819.6592">React Frontend</text><text fill="#000000" font-family="sans-serif" font-size="14" lengthAdjust="spacing" textLength="103.7832" x="287.8706" y="1835.9561">(Инфопанель)</text></g><g class="participant participant-head" data-entity-uid="part3" data-qualified-name="Nginx" id="part3-head"><rect fill="#E2E2F0" height="46.5938" rx="2.5" ry="2.5" style="stroke:#181818;stroke-width:0.5;" width="125.6104" x="563.293" y="73.2969"></rect><text fill="#000000" font-family="sans-serif" font-size="14" lengthAdjust="spacing" textLength="40.4072" x="605.8945" y="93.292">Nginx</text><text fill="#000000" font-family="sans-serif" font-size="14" lengthAdjust="spacing" textLength="111.6104" x="570.293" y="109.5889">(Reverse Proxy)</text></g><g class="participant participant-tail" data-entity-uid="part3" data-qualified-name="Nginx" id="part3-tail"><rect fill="#E2E2F0" height="46.5938" rx="2.5" ry="2.5" style="stroke:#181818;stroke-width:0.5;" width="125.6104" x="563.293" y="1799.6641"></rect><text fill="#000000" font-family="sans-serif" font-size="14" lengthAdjust="spacing" textLength="40.4072" x="605.8945" y="1819.6592">Nginx</text><text fill="#000000" font-family="sans-serif" font-size="14" lengthAdjust="spacing" textLength="111.6104" x="570.293" y="1835.9561">(Reverse Proxy)</text></g><g class="participant participant-head" data-entity-uid="part4" data-qualified-name="Backend" id="part4-head"><rect fill="#E2E2F0" height="46.5938" rx="2.5" ry="2.5" style="stroke:#181818;stroke-width:0.5;" width="130.375" x="840.6323" y="73.2969"></rect><text fill="#000000" font-family="sans-serif" font-size="14" lengthAdjust="spacing" textLength="116.375" x="847.6323" y="93.292">FastAPI Backend</text><text fill="#000000" font-family="sans-serif" font-size="14" lengthAdjust="spacing" textLength="64.2373" x="873.7012" y="109.5889">(Uvicorn)</text></g><g class="participant participant-tail" data-entity-uid="part4" data-qualified-name="Backend" id="part4-tail"><rect fill="#E2E2F0" height="46.5938" rx="2.5" ry="2.5" style="stroke:#181818;stroke-width:0.5;" width="130.375" x="840.6323" y="1799.6641"></rect><text fill="#000000" font-family="sans-serif" font-size="14" lengthAdjust="spacing" textLength="116.375" x="847.6323" y="1819.6592">FastAPI Backend</text><text fill="#000000" font-family="sans-serif" font-size="14" lengthAdjust="spacing" textLength="64.2373" x="873.7012" y="1835.9561">(Uvicorn)</text></g><g class="participant participant-head" data-entity-uid="part5" data-qualified-name="ES" id="part5-head"><text fill="#000000" font-family="sans-serif" font-size="14" lengthAdjust="spacing" textLength="94.0898" x="1143.355" y="101.292">ElasticSearch</text><text fill="#000000" font-family="sans-serif" font-size="14" lengthAdjust="spacing" textLength="101.3018" x="1139.749" y="117.5889">(Журнал K11)</text><path d="M1175.3999,52.2969 C1175.3999,42.2969 1193.3999,42.2969 1193.3999,42.2969 C1193.3999,42.2969 1211.3999,42.2969 1211.3999,52.2969 L1211.3999,78.2969 C1211.3999,88.2969 1193.3999,88.2969 1193.3999,88.2969 C1193.3999,88.2969 1175.3999,88.2969 1175.3999,78.2969 L1175.3999,52.2969" fill="#E2E2F0" style="stroke:#181818;stroke-width:0.5;"></path><path d="M1175.3999,52.2969 C1175.3999,62.2969 1193.3999,62.2969 1193.3999,62.2969 C1193.3999,62.2969 1211.3999,62.2969 1211.3999,52.2969" fill="none" style="stroke:#181818;stroke-width:0.5;"></path></g><g class="participant participant-tail" data-entity-uid="part5" data-qualified-name="ES" id="part5-tail"><text fill="#000000" font-family="sans-serif" font-size="14" lengthAdjust="spacing" textLength="94.0898" x="1143.355" y="1812.6592">ElasticSearch</text><text fill="#000000" font-family="sans-serif" font-size="14" lengthAdjust="spacing" textLength="101.3018" x="1139.749" y="1828.9561">(Журнал K11)</text><path d="M1175.3999,1842.2578 C1175.3999,1832.2578 1193.3999,1832.2578 1193.3999,1832.2578 C1193.3999,1832.2578 1211.3999,1832.2578 1211.3999,1842.2578 L1211.3999,1868.2578 C1211.3999,1878.2578 1193.3999,1878.2578 1193.3999,1878.2578 C1193.3999,1878.2578 1175.3999,1878.2578 1175.3999,1868.2578 L1175.3999,1842.2578" fill="#E2E2F0" style="stroke:#181818;stroke-width:0.5;"></path><path d="M1175.3999,1842.2578 C1175.3999,1852.2578 1193.3999,1852.2578 1193.3999,1852.2578 C1193.3999,1852.2578 1211.3999,1852.2578 1211.3999,1842.2578" fill="none" style="stroke:#181818;stroke-width:0.5;"></path></g><rect fill="#EEEEEE" height="3" style="stroke:#EEEEEE;stroke-width:1;" width="1252.0508" x="0" y="151.457"></rect><line style="stroke:#000000;stroke-width:1;" x1="0" x2="1252.0508" y1="151.457" y2="151.457"></line><line style="stroke:#000000;stroke-width:1;" x1="0" x2="1252.0508" y1="154.457" y2="154.457"></line><rect fill="#EEEEEE" height="23.1328" style="stroke:#000000;stroke-width:2;" width="145.7329" x="553.1589" y="140.8906"></rect><text fill="#000000" font-family="sans-serif" font-size="13" font-weight="bold" lengthAdjust="spacing" textLength="127.207" x="559.1589" y="156.9575">Аутентификация</text><g class="message" data-entity-1="part1" data-entity-2="part2" id="msg1"><polygon fill="#181818" points="327.7622,206.2891,337.7622,210.2891,327.7622,214.2891,331.7622,210.2891" style="stroke:#181818;stroke-width:1;"></polygon><line style="stroke:#181818;stroke-width:1;" x1="58.9297" x2="333.7622" y1="210.2891" y2="210.2891"></line><text fill="#000000" font-family="sans-serif" font-size="13" lengthAdjust="spacing" textLength="115.5527" x="65.9297" y="190.0903">Открывает /login</text><text fill="#000000" font-family="sans-serif" font-size="13" lengthAdjust="spacing" textLength="159.0723" x="65.9297" y="205.2231">Вводит логин и пароль</text></g><g class="message" data-entity-1="part2" data-entity-2="part3" id="msg2"><polygon fill="#181818" points="614.0981,265.6875,624.0981,269.6875,614.0981,273.6875,618.0981,269.6875" style="stroke:#181818;stroke-width:1;"></polygon><line style="stroke:#181818;stroke-width:1;" x1="339.7622" x2="620.0981" y1="269.6875" y2="269.6875"></line><text fill="#000000" font-family="sans-serif" font-size="13" lengthAdjust="spacing" textLength="132.5771" x="346.7622" y="234.356">POST /api/auth/login</text><text fill="#000000" font-family="sans-serif" font-size="13" lengthAdjust="spacing" textLength="165.9658" x="346.7622" y="249.4888">{"username": "operator",</text><text fill="#000000" font-family="sans-serif" font-size="13" lengthAdjust="spacing" textLength="200.7256" x="350.8945" y="264.6216">"password": "securepass123"}</text></g><g class="message" data-entity-1="part3" data-entity-2="part4" id="msg3"><polygon fill="#181818" points="893.8198,294.8203,903.8198,298.8203,893.8198,302.8203,897.8198,298.8203" style="stroke:#181818;stroke-width:1;"></polygon><line style="stroke:#181818;stroke-width:1;" x1="626.0981" x2="899.8198" y1="298.8203" y2="298.8203"></line><text fill="#000000" font-family="sans-serif" font-size="13" lengthAdjust="spacing" textLength="106.209" x="633.0981" y="293.7544">Проксирование</text></g><g class="message" data-entity-1="part4" data-entity-2="part4" id="msg4"><line style="stroke:#181818;stroke-width:1;" x1="905.8198" x2="947.8198" y1="343.0859" y2="343.0859"></line><line style="stroke:#181818;stroke-width:1;" x1="947.8198" x2="947.8198" y1="343.0859" y2="356.0859"></line><line style="stroke:#181818;stroke-width:1;" x1="906.8198" x2="947.8198" y1="356.0859" y2="356.0859"></line><polygon fill="#181818" points="916.8198,352.0859,906.8198,356.0859,916.8198,360.0859,912.8198,356.0859" style="stroke:#181818;stroke-width:1;"></polygon><text fill="#000000" font-family="sans-serif" font-size="13" lengthAdjust="spacing" textLength="135.0654" x="912.8198" y="322.8872">Проверка username</text><text fill="#000000" font-family="sans-serif" font-size="13" lengthAdjust="spacing" textLength="154.1021" x="912.8198" y="338.02">(hmac.compare_digest)</text></g><g class="message" data-entity-1="part4" data-entity-2="part4" id="msg5"><line style="stroke:#181818;stroke-width:1;" x1="905.8198" x2="947.8198" y1="400.3516" y2="400.3516"></line><line style="stroke:#181818;stroke-width:1;" x1="947.8198" x2="947.8198" y1="400.3516" y2="413.3516"></line><line style="stroke:#181818;stroke-width:1;" x1="906.8198" x2="947.8198" y1="413.3516" y2="413.3516"></line><polygon fill="#181818" points="916.8198,409.3516,906.8198,413.3516,916.8198,417.3516,912.8198,413.3516" style="stroke:#181818;stroke-width:1;"></polygon><text fill="#000000" font-family="sans-serif" font-size="13" lengthAdjust="spacing" textLength="131.79" x="912.8198" y="380.1528">Проверка password</text><text fill="#000000" font-family="sans-serif" font-size="13" lengthAdjust="spacing" textLength="113.0073" x="912.8198" y="395.2856">(bcrypt.checkpw)</text></g><path d="M10,428.3516 L74.4429,428.3516 L74.4429,435.4844 L64.4429,445.4844 L10,445.4844 L10,428.3516" fill="#EEEEEE" style="stroke:#000000;stroke-width:1.5;"></path><rect fill="none" height="381.7969" style="stroke:#000000;stroke-width:1.5;" width="1135.2803" x="10" y="428.3516"></rect><text fill="#000000" font-family="sans-serif" font-size="13" font-weight="bold" lengthAdjust="spacing" textLength="19.4429" x="25" y="441.4185">alt</text><text fill="#000000" font-family="sans-serif" font-size="11" font-weight="bold" lengthAdjust="spacing" textLength="184.1641" x="89.4429" y="440.562">[Неверные учётные данные]</text><g class="message" data-entity-1="part4" data-entity-2="part3" id="msg6"><polygon fill="#181818" points="637.0981,462.6172,627.0981,466.6172,637.0981,470.6172,633.0981,466.6172" style="stroke:#181818;stroke-width:1;"></polygon><line style="stroke:#181818;stroke-width:1;stroke-dasharray:2,2;" x1="631.0981" x2="904.8198" y1="466.6172" y2="466.6172"></line><text fill="#000000" font-family="sans-serif" font-size="13" lengthAdjust="spacing" textLength="255.7217" x="643.0981" y="461.5513">401 {"message": "Invalid credentials"}</text></g><g class="message" data-entity-1="part3" data-entity-2="part2" id="msg7"><polygon fill="#181818" points="350.7622,491.75,340.7622,495.75,350.7622,499.75,346.7622,495.75" style="stroke:#181818;stroke-width:1;"></polygon><line style="stroke:#181818;stroke-width:1;stroke-dasharray:2,2;" x1="344.7622" x2="625.0981" y1="495.75" y2="495.75"></line><text fill="#000000" font-family="sans-serif" font-size="13" lengthAdjust="spacing" textLength="24.813" x="356.7622" y="490.6841">401</text></g><g class="message" data-entity-1="part2" data-entity-2="part1" id="msg8"><polygon fill="#181818" points="69.9297,520.8828,59.9297,524.8828,69.9297,528.8828,65.9297,524.8828" style="stroke:#181818;stroke-width:1;"></polygon><line style="stroke:#181818;stroke-width:1;stroke-dasharray:2,2;" x1="63.9297" x2="338.7622" y1="524.8828" y2="524.8828"></line><text fill="#000000" font-family="sans-serif" font-size="13" lengthAdjust="spacing" textLength="256.8325" x="75.9297" y="519.8169">Ошибка: неверный логин или пароль</text></g><line style="stroke:#000000;stroke-width:1;stroke-dasharray:2,2;" x1="10" x2="1145.2803" y1="533.8828" y2="533.8828"></line><text fill="#000000" font-family="sans-serif" font-size="11" font-weight="bold" lengthAdjust="spacing" textLength="161.3477" x="15" y="544.0933">[Учётные данные верны]</text><g class="message" data-entity-1="part4" data-entity-2="part4" id="msg9"><line style="stroke:#181818;stroke-width:1;" x1="905.8198" x2="947.8198" y1="614.2188" y2="614.2188"></line><line style="stroke:#181818;stroke-width:1;" x1="947.8198" x2="947.8198" y1="614.2188" y2="627.2188"></line><line style="stroke:#181818;stroke-width:1;" x1="906.8198" x2="947.8198" y1="627.2188" y2="627.2188"></line><polygon fill="#181818" points="916.8198,623.2188,906.8198,627.2188,916.8198,631.2188,912.8198,627.2188" style="stroke:#181818;stroke-width:1;"></polygon><text fill="#000000" font-family="sans-serif" font-size="13" lengthAdjust="spacing" textLength="191.4072" x="912.8198" y="563.7544">Генерация JWT access token</text><text fill="#000000" font-family="sans-serif" font-size="13" lengthAdjust="spacing" textLength="220.4604" x="912.8198" y="578.8872">(TTL=15мин, HS256, jti=random)</text><text fill="#000000" font-family="sans-serif" font-size="13" lengthAdjust="spacing" textLength="193.8765" x="912.8198" y="594.02">Генерация JWT refresh token</text><text fill="#000000" font-family="sans-serif" font-size="13" lengthAdjust="spacing" textLength="86.3662" x="912.8198" y="609.1528">(TTL=7дней)</text></g><g class="message" data-entity-1="part4" data-entity-2="part3" id="msg10"><polygon fill="#181818" points="637.0981,682.6172,627.0981,686.6172,637.0981,690.6172,633.0981,686.6172" style="stroke:#181818;stroke-width:1;"></polygon><line style="stroke:#181818;stroke-width:1;stroke-dasharray:2,2;" x1="631.0981" x2="904.8198" y1="686.6172" y2="686.6172"></line><text fill="#000000" font-family="sans-serif" font-size="13" lengthAdjust="spacing" textLength="173.2974" x="643.0981" y="651.2856">200 {"access_token": "...",</text><text fill="#000000" font-family="sans-serif" font-size="13" lengthAdjust="spacing" textLength="138.5503" x="647.2305" y="666.4185">"refresh_token": "...",</text><text fill="#000000" font-family="sans-serif" font-size="13" lengthAdjust="spacing" textLength="119.5771" x="647.2305" y="681.5513">"expires_in": 900}</text></g><g class="message" data-entity-1="part3" data-entity-2="part2" id="msg11"><polygon fill="#181818" points="350.7622,711.75,340.7622,715.75,350.7622,719.75,346.7622,715.75" style="stroke:#181818;stroke-width:1;"></polygon><line style="stroke:#181818;stroke-width:1;stroke-dasharray:2,2;" x1="344.7622" x2="625.0981" y1="715.75" y2="715.75"></line><text fill="#000000" font-family="sans-serif" font-size="13" lengthAdjust="spacing" textLength="24.813" x="356.7622" y="710.6841">200</text></g><g class="message" data-entity-1="part2" data-entity-2="part2" id="msg12"><line style="stroke:#181818;stroke-width:1;" x1="339.7622" x2="381.7622" y1="760.0156" y2="760.0156"></line><line style="stroke:#181818;stroke-width:1;" x1="381.7622" x2="381.7622" y1="760.0156" y2="773.0156"></line><line style="stroke:#181818;stroke-width:1;" x1="340.7622" x2="381.7622" y1="773.0156" y2="773.0156"></line><polygon fill="#181818" points="350.7622,769.0156,340.7622,773.0156,350.7622,777.0156,346.7622,773.0156" style="stroke:#181818;stroke-width:1;"></polygon><text fill="#000000" font-family="sans-serif" font-size="13" lengthAdjust="spacing" textLength="142.0098" x="346.7622" y="739.8169">Сохранение токенов</text><text fill="#000000" font-family="sans-serif" font-size="13" lengthAdjust="spacing" textLength="151.6455" x="346.7622" y="754.9497">в localStorage/memory</text></g><g class="message" data-entity-1="part2" data-entity-2="part1" id="msg13"><polygon fill="#181818" points="69.9297,798.1484,59.9297,802.1484,69.9297,806.1484,65.9297,802.1484" style="stroke:#181818;stroke-width:1;"></polygon><line style="stroke:#181818;stroke-width:1;stroke-dasharray:2,2;" x1="63.9297" x2="338.7622" y1="802.1484" y2="802.1484"></line><text fill="#000000" font-family="sans-serif" font-size="13" lengthAdjust="spacing" textLength="173.0498" x="75.9297" y="797.0825">Перенаправление на /log</text></g><rect fill="#EEEEEE" height="3" style="stroke:#EEEEEE;stroke-width:1;" width="1252.0508" x="0" y="837.7148"></rect><line style="stroke:#000000;stroke-width:1;" x1="0" x2="1252.0508" y1="837.7148" y2="837.7148"></line><line style="stroke:#000000;stroke-width:1;" x1="0" x2="1252.0508" y1="840.7148" y2="840.7148"></line><rect fill="#EEEEEE" height="23.1328" style="stroke:#000000;stroke-width:2;" width="337.4131" x="457.3188" y="827.1484"></rect><text fill="#000000" font-family="sans-serif" font-size="13" font-weight="bold" lengthAdjust="spacing" textLength="318.8872" x="463.3188" y="843.2153">Просмотр журнала событий безопасности</text><g class="message" data-entity-1="part1" data-entity-2="part2" id="msg14"><polygon fill="#181818" points="327.7622,892.5469,337.7622,896.5469,327.7622,900.5469,331.7622,896.5469" style="stroke:#181818;stroke-width:1;"></polygon><line style="stroke:#181818;stroke-width:1;" x1="58.9297" x2="333.7622" y1="896.5469" y2="896.5469"></line><text fill="#000000" font-family="sans-serif" font-size="13" lengthAdjust="spacing" textLength="155.7334" x="65.9297" y="876.3481">Переходит на вкладку</text><text fill="#000000" font-family="sans-serif" font-size="13" lengthAdjust="spacing" textLength="169.3618" x="65.9297" y="891.481">"События безопасности"</text></g><g class="message" data-entity-1="part2" data-entity-2="part3" id="msg15"><polygon fill="#181818" points="614.0981,936.8125,624.0981,940.8125,614.0981,944.8125,618.0981,940.8125" style="stroke:#181818;stroke-width:1;"></polygon><line style="stroke:#181818;stroke-width:1;" x1="339.7622" x2="620.0981" y1="940.8125" y2="940.8125"></line><text fill="#000000" font-family="sans-serif" font-size="13" lengthAdjust="spacing" textLength="257.4102" x="346.7622" y="920.6138">GET /api/log/events?type=safety_event</text><text fill="#000000" font-family="sans-serif" font-size="13" lengthAdjust="spacing" textLength="262.3359" x="346.7622" y="935.7466">[Authorization: Bearer &lt;access_token&gt;]</text></g><g class="message" data-entity-1="part3" data-entity-2="part4" id="msg16"><polygon fill="#181818" points="893.8198,965.9453,903.8198,969.9453,893.8198,973.9453,897.8198,969.9453" style="stroke:#181818;stroke-width:1;"></polygon><line style="stroke:#181818;stroke-width:1;" x1="626.0981" x2="899.8198" y1="969.9453" y2="969.9453"></line><text fill="#000000" font-family="sans-serif" font-size="13" lengthAdjust="spacing" textLength="106.209" x="633.0981" y="964.8794">Проксирование</text></g><g class="message" data-entity-1="part4" data-entity-2="part4" id="msg17"><line style="stroke:#181818;stroke-width:1;" x1="905.8198" x2="947.8198" y1="1014.2109" y2="1014.2109"></line><line style="stroke:#181818;stroke-width:1;" x1="947.8198" x2="947.8198" y1="1014.2109" y2="1027.2109"></line><line style="stroke:#181818;stroke-width:1;" x1="906.8198" x2="947.8198" y1="1027.2109" y2="1027.2109"></line><polygon fill="#181818" points="916.8198,1023.2109,906.8198,1027.2109,916.8198,1031.2109,912.8198,1027.2109" style="stroke:#181818;stroke-width:1;"></polygon><text fill="#000000" font-family="sans-serif" font-size="13" lengthAdjust="spacing" textLength="136.938" x="912.8198" y="994.0122">Декодирование JWT</text><text fill="#000000" font-family="sans-serif" font-size="13" lengthAdjust="spacing" textLength="272.8667" x="912.8198" y="1009.145">(проверка подписи, exp, type="access")</text></g><path d="M268.9292,1042.2109 L333.3721,1042.2109 L333.3721,1049.3438 L323.3721,1059.3438 L268.9292,1059.3438 L268.9292,1042.2109" fill="#EEEEEE" style="stroke:#000000;stroke-width:1.5;"></path><rect fill="none" height="364.7266" style="stroke:#000000;stroke-width:1.5;" width="861.8721" x="268.9292" y="1042.2109"></rect><text fill="#000000" font-family="sans-serif" font-size="13" font-weight="bold" lengthAdjust="spacing" textLength="19.4429" x="283.9292" y="1055.2778">alt</text><text fill="#000000" font-family="sans-serif" font-size="11" font-weight="bold" lengthAdjust="spacing" textLength="87.001" x="348.3721" y="1054.4214">[Токен истёк]</text><g class="message" data-entity-1="part4" data-entity-2="part3" id="msg18"><polygon fill="#181818" points="637.0981,1076.4766,627.0981,1080.4766,637.0981,1084.4766,633.0981,1080.4766" style="stroke:#181818;stroke-width:1;"></polygon><line style="stroke:#181818;stroke-width:1;stroke-dasharray:2,2;" x1="631.0981" x2="904.8198" y1="1080.4766" y2="1080.4766"></line><text fill="#000000" font-family="sans-serif" font-size="13" lengthAdjust="spacing" textLength="229.2837" x="643.0981" y="1075.4106">401 {"message": "Token expired"}</text></g><g class="message" data-entity-1="part3" data-entity-2="part2" id="msg19"><polygon fill="#181818" points="350.7622,1105.6094,340.7622,1109.6094,350.7622,1113.6094,346.7622,1109.6094" style="stroke:#181818;stroke-width:1;"></polygon><line style="stroke:#181818;stroke-width:1;stroke-dasharray:2,2;" x1="344.7622" x2="625.0981" y1="1109.6094" y2="1109.6094"></line><text fill="#000000" font-family="sans-serif" font-size="13" lengthAdjust="spacing" textLength="24.813" x="356.7622" y="1104.5435">401</text></g><g class="message" data-entity-1="part2" data-entity-2="part3" id="msg20"><polygon fill="#181818" points="614.0981,1149.875,624.0981,1153.875,614.0981,1157.875,618.0981,1153.875" style="stroke:#181818;stroke-width:1;"></polygon><line style="stroke:#181818;stroke-width:1;" x1="339.7622" x2="620.0981" y1="1153.875" y2="1153.875"></line><text fill="#000000" font-family="sans-serif" font-size="13" lengthAdjust="spacing" textLength="147.1831" x="346.7622" y="1133.6763">POST /api/auth/refresh</text><text fill="#000000" font-family="sans-serif" font-size="13" lengthAdjust="spacing" textLength="150.96" x="346.7622" y="1148.8091">{"refresh_token": "..."}</text></g><g class="message" data-entity-1="part3" data-entity-2="part4" id="msg21"><polygon fill="#181818" points="893.8198,1179.0078,903.8198,1183.0078,893.8198,1187.0078,897.8198,1183.0078" style="stroke:#181818;stroke-width:1;"></polygon><line style="stroke:#181818;stroke-width:1;" x1="626.0981" x2="899.8198" y1="1183.0078" y2="1183.0078"></line><text fill="#000000" font-family="sans-serif" font-size="13" lengthAdjust="spacing" textLength="106.209" x="633.0981" y="1177.9419">Проксирование</text></g><g class="message" data-entity-1="part4" data-entity-2="part4" id="msg22"><line style="stroke:#181818;stroke-width:1;" x1="905.8198" x2="947.8198" y1="1227.2734" y2="1227.2734"></line><line style="stroke:#181818;stroke-width:1;" x1="947.8198" x2="947.8198" y1="1227.2734" y2="1240.2734"></line><line style="stroke:#181818;stroke-width:1;" x1="906.8198" x2="947.8198" y1="1240.2734" y2="1240.2734"></line><polygon fill="#181818" points="916.8198,1236.2734,906.8198,1240.2734,916.8198,1244.2734,912.8198,1240.2734" style="stroke:#181818;stroke-width:1;"></polygon><text fill="#000000" font-family="sans-serif" font-size="13" lengthAdjust="spacing" textLength="157.0664" x="912.8198" y="1207.0747">Проверка refresh token</text><text fill="#000000" font-family="sans-serif" font-size="13" lengthAdjust="spacing" textLength="205.9814" x="912.8198" y="1222.2075">(подпись, exp, type="refresh")</text></g><g class="message" data-entity-1="part4" data-entity-2="part3" id="msg23"><polygon fill="#181818" points="637.0981,1265.4063,627.0981,1269.4063,637.0981,1273.4063,633.0981,1269.4063" style="stroke:#181818;stroke-width:1;"></polygon><line style="stroke:#181818;stroke-width:1;stroke-dasharray:2,2;" x1="631.0981" x2="904.8198" y1="1269.4063" y2="1269.4063"></line><text fill="#000000" font-family="sans-serif" font-size="13" lengthAdjust="spacing" textLength="181.8286" x="643.0981" y="1264.3403">200 {новая пара токенов}</text></g><g class="message" data-entity-1="part3" data-entity-2="part2" id="msg24"><polygon fill="#181818" points="350.7622,1294.5391,340.7622,1298.5391,350.7622,1302.5391,346.7622,1298.5391" style="stroke:#181818;stroke-width:1;"></polygon><line style="stroke:#181818;stroke-width:1;stroke-dasharray:2,2;" x1="344.7622" x2="625.0981" y1="1298.5391" y2="1298.5391"></line><text fill="#000000" font-family="sans-serif" font-size="13" lengthAdjust="spacing" textLength="24.813" x="356.7622" y="1293.4731">200</text></g><g class="message" data-entity-1="part2" data-entity-2="part2" id="msg25"><line style="stroke:#181818;stroke-width:1;" x1="339.7622" x2="381.7622" y1="1327.6719" y2="1327.6719"></line><line style="stroke:#181818;stroke-width:1;" x1="381.7622" x2="381.7622" y1="1327.6719" y2="1340.6719"></line><line style="stroke:#181818;stroke-width:1;" x1="340.7622" x2="381.7622" y1="1340.6719" y2="1340.6719"></line><polygon fill="#181818" points="350.7622,1336.6719,340.7622,1340.6719,350.7622,1344.6719,346.7622,1340.6719" style="stroke:#181818;stroke-width:1;"></polygon><text fill="#000000" font-family="sans-serif" font-size="13" lengthAdjust="spacing" textLength="143.2412" x="346.7622" y="1322.606">Обновление токенов</text></g><g class="message" data-entity-1="part2" data-entity-2="part3" id="msg26"><polygon fill="#181818" points="614.0981,1365.8047,624.0981,1369.8047,614.0981,1373.8047,618.0981,1369.8047" style="stroke:#181818;stroke-width:1;"></polygon><line style="stroke:#181818;stroke-width:1;" x1="339.7622" x2="620.0981" y1="1369.8047" y2="1369.8047"></line><text fill="#000000" font-family="sans-serif" font-size="13" lengthAdjust="spacing" textLength="258.8511" x="346.7622" y="1364.7388">Повтор запроса с новым access_token</text></g><g class="message" data-entity-1="part3" data-entity-2="part4" id="msg27"><polygon fill="#181818" points="893.8198,1394.9375,903.8198,1398.9375,893.8198,1402.9375,897.8198,1398.9375" style="stroke:#181818;stroke-width:1;"></polygon><line style="stroke:#181818;stroke-width:1;" x1="626.0981" x2="899.8198" y1="1398.9375" y2="1398.9375"></line><text fill="#000000" font-family="sans-serif" font-size="13" lengthAdjust="spacing" textLength="106.209" x="633.0981" y="1393.8716">Проксирование</text></g><g class="message" data-entity-1="part4" data-entity-2="part5" id="msg28"><polygon fill="#181818" points="1181.3999,1446.2031,1191.3999,1450.2031,1181.3999,1454.2031,1185.3999,1450.2031" style="stroke:#181818;stroke-width:1;"></polygon><line style="stroke:#181818;stroke-width:1;" x1="905.8198" x2="1187.3999" y1="1450.2031" y2="1450.2031"></line><text fill="#000000" font-family="sans-serif" font-size="13" lengthAdjust="spacing" textLength="110.1382" x="912.8198" y="1430.0044">Запрос событий</text><text fill="#000000" font-family="sans-serif" font-size="13" lengthAdjust="spacing" textLength="263.5801" x="912.8198" y="1445.1372">с фильтром event_type="safety_event"</text></g><g class="message" data-entity-1="part5" data-entity-2="part4" id="msg29"><polygon fill="#181818" points="916.8198,1475.3359,906.8198,1479.3359,916.8198,1483.3359,912.8198,1479.3359" style="stroke:#181818;stroke-width:1;"></polygon><line style="stroke:#181818;stroke-width:1;stroke-dasharray:2,2;" x1="910.8198" x2="1192.3999" y1="1479.3359" y2="1479.3359"></line><text fill="#000000" font-family="sans-serif" font-size="13" lengthAdjust="spacing" textLength="110.9634" x="922.8198" y="1474.27">Список событий</text></g><g class="message" data-entity-1="part4" data-entity-2="part3" id="msg30"><polygon fill="#181818" points="637.0981,1504.4688,627.0981,1508.4688,637.0981,1512.4688,633.0981,1508.4688" style="stroke:#181818;stroke-width:1;"></polygon><line style="stroke:#181818;stroke-width:1;stroke-dasharray:2,2;" x1="631.0981" x2="904.8198" y1="1508.4688" y2="1508.4688"></line><text fill="#000000" font-family="sans-serif" font-size="13" lengthAdjust="spacing" textLength="148.1226" x="643.0981" y="1503.4028">200 [список событий]</text></g><g class="message" data-entity-1="part3" data-entity-2="part2" id="msg31"><polygon fill="#181818" points="350.7622,1533.6016,340.7622,1537.6016,350.7622,1541.6016,346.7622,1537.6016" style="stroke:#181818;stroke-width:1;"></polygon><line style="stroke:#181818;stroke-width:1;stroke-dasharray:2,2;" x1="344.7622" x2="625.0981" y1="1537.6016" y2="1537.6016"></line><text fill="#000000" font-family="sans-serif" font-size="13" lengthAdjust="spacing" textLength="24.813" x="356.7622" y="1532.5356">200</text></g><g class="message" data-entity-1="part2" data-entity-2="part2" id="msg32"><line style="stroke:#181818;stroke-width:1;" x1="339.7622" x2="381.7622" y1="1581.8672" y2="1581.8672"></line><line style="stroke:#181818;stroke-width:1;" x1="381.7622" x2="381.7622" y1="1581.8672" y2="1594.8672"></line><line style="stroke:#181818;stroke-width:1;" x1="340.7622" x2="381.7622" y1="1594.8672" y2="1594.8672"></line><polygon fill="#181818" points="350.7622,1590.8672,340.7622,1594.8672,350.7622,1598.8672,346.7622,1594.8672" style="stroke:#181818;stroke-width:1;"></polygon><text fill="#000000" font-family="sans-serif" font-size="13" lengthAdjust="spacing" textLength="220.1938" x="346.7622" y="1561.6685">Отображение таблицы событий</text><text fill="#000000" font-family="sans-serif" font-size="13" lengthAdjust="spacing" textLength="262.2598" x="346.7622" y="1576.8013">(timestamp, service, severity, message)</text></g><g class="message" data-entity-1="part2" data-entity-2="part1" id="msg33"><polygon fill="#181818" points="69.9297,1620,59.9297,1624,69.9297,1628,65.9297,1624" style="stroke:#181818;stroke-width:1;"></polygon><line style="stroke:#181818;stroke-width:1;stroke-dasharray:2,2;" x1="63.9297" x2="338.7622" y1="1624" y2="1624"></line><text fill="#000000" font-family="sans-serif" font-size="13" lengthAdjust="spacing" textLength="217.731" x="75.9297" y="1618.9341">Таблица событий безопасности</text></g><rect fill="#EEEEEE" height="3" style="stroke:#EEEEEE;stroke-width:1;" width="1252.0508" x="0" y="1652.5664"></rect><line style="stroke:#000000;stroke-width:1;" x1="0" x2="1252.0508" y1="1652.5664" y2="1652.5664"></line><line style="stroke:#000000;stroke-width:1;" x1="0" x2="1252.0508" y1="1655.5664" y2="1655.5664"></line><rect fill="#EEEEEE" height="23.1328" style="stroke:#000000;stroke-width:2;" width="154.5308" x="548.76" y="1642"></rect><text fill="#000000" font-family="sans-serif" font-size="13" font-weight="bold" lengthAdjust="spacing" textLength="136.0049" x="554.76" y="1658.0669">Скачивание логов</text><g class="message" data-entity-1="part1" data-entity-2="part2" id="msg34"><polygon fill="#181818" points="327.7622,1692.2656,337.7622,1696.2656,327.7622,1700.2656,331.7622,1696.2656" style="stroke:#181818;stroke-width:1;"></polygon><line style="stroke:#181818;stroke-width:1;" x1="58.9297" x2="333.7622" y1="1696.2656" y2="1696.2656"></line><text fill="#000000" font-family="sans-serif" font-size="13" lengthAdjust="spacing" textLength="178.7881" x="65.9297" y="1691.1997">Нажимает "Скачать логи"</text></g><g class="message" data-entity-1="part2" data-entity-2="part2" id="msg35"><line style="stroke:#181818;stroke-width:1;" x1="339.7622" x2="381.7622" y1="1740.5313" y2="1740.5313"></line><line style="stroke:#181818;stroke-width:1;" x1="381.7622" x2="381.7622" y1="1740.5313" y2="1753.5313"></line><line style="stroke:#181818;stroke-width:1;" x1="340.7622" x2="381.7622" y1="1753.5313" y2="1753.5313"></line><polygon fill="#181818" points="350.7622,1749.5313,340.7622,1753.5313,350.7622,1757.5313,346.7622,1753.5313" style="stroke:#181818;stroke-width:1;"></polygon><text fill="#000000" font-family="sans-serif" font-size="13" lengthAdjust="spacing" textLength="150.3696" x="346.7622" y="1720.3325">Формирование файла</text><text fill="#000000" font-family="sans-serif" font-size="13" lengthAdjust="spacing" textLength="135.04" x="346.7622" y="1735.4653">из текущих данных</text></g><g class="message" data-entity-1="part2" data-entity-2="part1" id="msg36"><polygon fill="#181818" points="69.9297,1778.6641,59.9297,1782.6641,69.9297,1786.6641,65.9297,1782.6641" style="stroke:#181818;stroke-width:1;"></polygon><line style="stroke:#181818;stroke-width:1;stroke-dasharray:2,2;" x1="63.9297" x2="338.7622" y1="1782.6641" y2="1782.6641"></line><text fill="#000000" font-family="sans-serif" font-size="13" lengthAdjust="spacing" textLength="164.3789" x="75.9297" y="1777.5981">Скачивание файла .json</text></g><!--?plantuml-src hLPTRnj557tVNt6rJxNaEXzG414kQgKK2WYYEXKFTHLDrzDaMtlNsfsaSIkaa3OfA95A0G4lJPJ23t02RXqdSVx2p3_YpCpwOnrlIQ5vS7PdxZrpxxdtdXtXYoedkQSsPKkUoAPQasrvIDCp97zKZzMwNiLlMpt1UWVxctX-Hh8hJsKBnariTlL_acsIftZggk_aCNxNrHh9Ly1OqxZo22ROwSfzjQK1vQ7ZC4-44Rbo9mtc4elfPimZfyuYuNj-dGM2t1iSzdGj2WF1Wqevk21_HsnFJ2XDdD6IHsexPvnxHcc0hnRzO1L-D_WAZs9ESr6ush0EPYjjVOt5uihSTRhAlFlsl9ihlXT6WVL8bfqA4-mE0vexMuM7xvKuYxmb7TwlW-JfYwafwpTRSfnYySti5ekEe_EdYvVxgH0giWFRZbfJM_80e2srJXFL496N0_aJbhhoRxYl4xZkoh-0U6ABOghQrUmuJXyEq2PfuCvzNPgd2LRt9zYoMEf1FdAN4KB0QjoT8JUiyuYXMcw-791RPt7y88mgUYVctdB4zShKz7lkjuvZOO6VKAGZtpKHTD00RVDqO2hMbYt7wLcDSpWmRG5Yg1SBU5sgCQ_WXJLKYozK_4KUYzmvKNfn0-ME5pNgek0jSUz-_K4EpLWL95-W8jRy12ot24Lwgfw3TliAWdNSviKX_FMF7QBp_SafUkJMU1opHSFTzM25LVqAUH6ly43uh1g39-sUK9KkC_pDvg1Ks3VjO5hWUz2shxF1sqagtCDqvV4oKdrUHP_AFp9JeW5OEhiKgJyRfR3pQllrys_cYNaUCYOHmWpqpiz_MPow1250B7dwh3HzwOCytHD-CM919QpbqBBZSI9-D-BnKWheGmIfKptCPP8-FJa9qcqG2yPNCrye56p39gXZTlXgtSVMWg-NFvgSV4DXSCP8OTBZkGVnsj3fc61DUvDMD1HBlw8HaVK1LKEFLKkO9RJ7H8tNmgYHNUzTGv2HPgEkJPJeg8-kbuq6E5gAZAxileq44pgf9LzR2SNMYNRLMvaIbCIZDWPgesD0L1sDZxMEUbmEN4r6xnpzlSWunnslI9_E9eA4r2QWre68Fn6DEY_6x2uNZGMpL0vkNO5UXP7_a0a_36ReAgGN8Nyyt0QNRxyZHVe56NIIh5CEkcsrt9-EY0rorTQdiCSXUKAdvSbaaVIfsrETbxqU8MsBiZsNdVFBoxnEasmVLzvEM3A_0ScywA_0sD59dN9ENhCLPLIcHpLWc4crdM8oCNN_HHdi-A7tdlKKiJaoclzZxdVGtHR_A6FkCsd7F67RNdi80zBiNw7qg9BrXZGVqt1F_mVoZJuCiJzRqlQ_3GuSKOPoe9VqjGGV3Yqas3mcCtSBbldXKNGTu5rCnxANT3xYENFnowhJBHXcUTrsCekJMHXJXNqZcw-6IzD4nV1rL9jgwqpU5uIFuHAiXXw30EBEn_K3heo-QEGf6RoSCrQkNmwWpo-sLhZtp0NmAIm7of9ypr78J45-ON9hG-_jZT3j0-4shRRxLm8tawK_pGN--8oieVfDUQXL7P-jjdnDvhuAULS_m7PZwEQWDiQpCIwb0IeLxiLXuFm3?--></g></svg>