<?xml version="1.0" encoding="UTF-8" standalone="yes"?>
<svg xmlns="http://www.w3.org/2000/svg" xmlns:xlink="http://www.w3.org/1999/xlink" contentstyletype="text/css" data-diagram-type="SEQUENCE" height="920px" preserveAspectRatio="none" style="width:827px;height:920px;background:#FFFFFF;" version="1.1" viewBox="0 0 827 920" width="827px" zoomAndPan="magnify" xmlns:xhtml="http://www.w3.org/1999/xhtml"><style>
             .markmap-foreign div { color: #333 !important; }
             .markmap-foreign strong { font-weight: bold !important; }
             .markmap-foreign table { border-collapse: collapse !important; }
             .markmap-foreign th, .markmap-foreign td { border: 1px solid #333 !important; padding: 3px !important; }
             .markmap-node > circle { fill: #fff !important; }</style><title>Угроза 3: Удаление записей из журнала (Tampering)</title><defs></defs><g><text fill="#000000" font-family="sans-serif" font-size="14" font-weight="bold" lengthAdjust="spacing" textLength="432.291" x="193.7092" y="27.9951">Угроза 3: Удаление записей из журнала (Tampering)</text><g class="participant-lifeline" data-entity-uid="part1" data-qualified-name="Attacker" id="part1-lifeline"><g><title>.............</title><rect fill="#000000" fill-opacity="0.00000" height="704.5859" width="8" x="65.3115" y="120.8906"></rect><line style="stroke:#181818;stroke-width:0.5;stroke-dasharray:5,5;" x1="69" x2="69" y1="120.8906" y2="825.4766"></line></g></g><g class="participant-lifeline" data-entity-uid="part2" data-qualified-name="Docker" id="part2-lifeline"><g><title>Docker Network</title><rect fill="#000000" fill-opacity="0.00000" height="704.5859" width="8" x="291.9033" y="120.8906"></rect><line style="stroke:#181818;stroke-width:0.5;stroke-dasharray:5,5;" x1="295.6914" x2="295.6914" y1="120.8906" y2="825.4766"></line></g></g><g class="participant-lifeline" data-entity-uid="part3" data-qualified-name="ES" id="part3-lifeline"><g><title>ElasticSearch</title><rect fill="#000000" fill-opacity="0.00000" height="704.5859" width="8" x="415.1602" y="120.8906"></rect><line style="stroke:#181818;stroke-width:0.5;stroke-dasharray:5,5;" x1="419.1152" x2="419.1152" y1="120.8906" y2="825.4766"></line></g></g><g class="participant-lifeline" data-entity-uid="part4" data-qualified-name="Operator" id="part4-lifeline"><g><title>........</title><rect fill="#000000" fill-opacity="0.00000" height="704.5859" width="8" x="514.1348" y="120.8906"></rect><line style="stroke:#181818;stroke-width:0.5;stroke-dasharray:5,5;" x1="517.2051" x2="517.2051" y1="120.8906" y2="825.4766"></line></g></g><g class="participant-lifeline" data-entity-uid="part5" data-qualified-name="Backend" id="part5-lifeline"><g><title>FastAPI Backend</title><rect fill="#000000" fill-opacity="0.00000" height="704.5859" width="8" x="746.522" y="120.8906"></rect><line style="stroke:#181818;stroke-width:0.5;stroke-dasharray:5,5;" x1="750.3345" x2="750.3345" y1="120.8906" y2="825.4766"></line></g></g><g class="participant participant-head" data-entity-uid="part1" data-qualified-name="Attacker" id="part1-head"><text fill="#000000" font-family="sans-serif" font-size="14" lengthAdjust="spacing" textLength="122.623" x="5" y="117.5889">Злоумышленник</text><ellipse cx="69.3115" cy="53.0938" fill="#FF0000" rx="8" ry="8" style="stroke:#181818;stroke-width:0.5;"></ellipse><path d="M69.3115,61.0938 L69.3115,88.0938 M56.3115,69.0938 L82.3115,69.0938 M69.3115,88.0938 L56.3115,103.0938 M69.3115,88.0938 L82.3115,103.0938" fill="none" style="stroke:#181818;stroke-width:0.5;"></path></g><g class="participant participant-tail" data-entity-uid="part1" data-qualified-name="Attacker" id="part1-tail"><text fill="#000000" font-family="sans-serif" font-size="14" lengthAdjust="spacing" textLength="122.623" x="5" y="837.4717">Злоумышленник</text><ellipse cx="69.3115" cy="849.2734" fill="#FF0000" rx="8" ry="8" style="stroke:#181818;stroke-width:0.5;"></ellipse><path d="M69.3115,857.2734 L69.3115,884.2734 M56.3115,865.2734 L82.3115,865.2734 M69.3115,884.2734 L56.3115,899.2734 M69.3115,884.2734 L82.3115,899.2734" fill="none" style="stroke:#181818;stroke-width:0.5;"></path></g><g class="participant participant-head" data-entity-uid="part2" data-qualified-name="Docker" id="part2-head"><rect fill="#E2E2F0" height="30.2969" rx="2.5" ry="2.5" style="stroke:#181818;stroke-width:0.5;" width="126.4238" x="232.6914" y="89.5938"></rect><text fill="#000000" font-family="sans-serif" font-size="14" lengthAdjust="spacing" textLength="112.4238" x="239.6914" y="109.5889">Docker Network</text></g><g class="participant participant-tail" data-entity-uid="part2" data-qualified-name="Docker" id="part2-tail"><rect fill="#E2E2F0" height="30.2969" rx="2.5" ry="2.5" style="stroke:#181818;stroke-width:0.5;" width="126.4238" x="232.6914" y="824.4766"></rect><text fill="#000000" font-family="sans-serif" font-size="14" lengthAdjust="spacing" textLength="112.4238" x="239.6914" y="844.4717">Docker Network</text></g><g class="participant participant-head" data-entity-uid="part3" data-qualified-name="ES" id="part3-head"><text fill="#000000" font-family="sans-serif" font-size="14" lengthAdjust="spacing" textLength="94.0898" x="369.1152" y="101.292">ElasticSearch</text><text fill="#000000" font-family="sans-serif" font-size="14" lengthAdjust="spacing" textLength="85.7637" x="373.2783" y="117.5889">(порт 9200)</text><path d="M401.1602,52.2969 C401.1602,42.2969 419.1602,42.2969 419.1602,42.2969 C419.1602,42.2969 437.1602,42.2969 437.1602,52.2969 L437.1602,78.2969 C437.1602,88.2969 419.1602,88.2969 419.1602,88.2969 C419.1602,88.2969 401.1602,88.2969 401.1602,78.2969 L401.1602,52.2969" fill="#E2E2F0" style="stroke:#181818;stroke-width:0.5;"></path><path d="M401.1602,52.2969 C401.1602,62.2969 419.1602,62.2969 419.1602,62.2969 C419.1602,62.2969 437.1602,62.2969 437.1602,52.2969" fill="none" style="stroke:#181818;stroke-width:0.5;"></path></g><g class="participant participant-tail" data-entity-uid="part3" data-qualified-name="ES" id="part3-tail"><text fill="#000000" font-family="sans-serif" font-size="14" lengthAdjust="spacing" textLength="94.0898" x="369.1152" y="837.4717">ElasticSearch</text><text fill="#000000" font-family="sans-serif" font-size="14" lengthAdjust="spacing" textLength="85.7637" x="373.2783" y="853.7686">(порт 9200)</text><path d="M401.1602,867.0703 C401.1602,857.0703 419.1602,857.0703 419.1602,857.0703 C419.1602,857.0703 437.1602,857.0703 437.1602,867.0703 L437.1602,893.0703 C437.1602,903.0703 419.1602,903.0703 419.1602,903.0703 C419.1602,903.0703 401.1602,903.0703 401.1602,893.0703 L401.1602,867.0703" fill="#E2E2F0" style="stroke:#181818;stroke-width:0.5;"></path><path d="M401.1602,867.0703 C401.1602,877.0703 419.1602,877.0703 419.1602,877.0703 C419.1602,877.0703 437.1602,877.0703 437.1602,867.0703" fill="none" style="stroke:#181818;stroke-width:0.5;"></path></g><g class="participant participant-head" data-entity-uid="part4" data-qualified-name="Operator" id="part4-head"><text fill="#000000" font-family="sans-serif" font-size="14" lengthAdjust="spacing" textLength="71.8594" x="479.2051" y="117.5889">Оператор</text><ellipse cx="518.1348" cy="53.0938" fill="#E2E2F0" rx="8" ry="8" style="stroke:#181818;stroke-width:0.5;"></ellipse><path d="M518.1348,61.0938 L518.1348,88.0938 M505.1348,69.0938 L531.1348,69.0938 M518.1348,88.0938 L505.1348,103.0938 M518.1348,88.0938 L531.1348,103.0938" fill="none" style="stroke:#181818;stroke-width:0.5;"></path></g><g class="participant participant-tail" data-entity-uid="part4" data-qualified-name="Operator" id="part4-tail"><text fill="#000000" font-family="sans-serif" font-size="14" lengthAdjust="spacing" textLength="71.8594" x="479.2051" y="837.4717">Оператор</text><ellipse cx="518.1348" cy="849.2734" fill="#E2E2F0" rx="8" ry="8" style="stroke:#181818;stroke-width:0.5;"></ellipse><path d="M518.1348,857.2734 L518.1348,884.2734 M505.1348,865.2734 L531.1348,865.2734 M518.1348,884.2734 L505.1348,899.2734 M518.1348,884.2734 L531.1348,899.2734" fill="none" style="stroke:#181818;stroke-width:0.5;"></path></g><g class="participant participant-head" data-entity-uid="part5" data-qualified-name="Backend" id="part5-head"><rect fill="#E2E2F0" height="30.2969" rx="2.5" ry="2.5" style="stroke:#181818;stroke-width:0.5;" width="130.375" x="685.3345" y="89.5938"></rect><text fill="#000000" font-family="sans-serif" font-size="14" lengthAdjust="spacing" textLength="116.375" x="692.3345" y="109.5889">FastAPI Backend</text></g><g class="participant participant-tail" data-entity-uid="part5" data-qualified-name="Backend" id="part5-tail"><rect fill="#E2E2F0" height="30.2969" rx="2.5" ry="2.5" style="stroke:#181818;stroke-width:0.5;" width="130.375" x="685.3345" y="824.4766"></rect><text fill="#000000" font-family="sans-serif" font-size="14" lengthAdjust="spacing" textLength="116.375" x="692.3345" y="844.4717">FastAPI Backend</text></g><rect fill="#EEEEEE" height="3" style="stroke:#EEEEEE;stroke-width:1;" width="820.7095" x="0" y="151.457"></rect><line style="stroke:#000000;stroke-width:1;" x1="0" x2="820.7095" y1="151.457" y2="151.457"></line><line style="stroke:#000000;stroke-width:1;" x1="0" x2="820.7095" y1="154.457" y2="154.457"></line><rect fill="#EEEEEE" height="23.1328" style="stroke:#000000;stroke-width:2;" width="277.1802" x="271.7646" y="140.8906"></rect><text fill="#000000" font-family="sans-serif" font-size="13" font-weight="bold" lengthAdjust="spacing" textLength="258.6543" x="277.7646" y="156.9575">Вектор атаки: прямой доступ к ES</text><g class="message" data-entity-1="part1" data-entity-2="part2" id="msg1"><polygon fill="#181818" points="283.9033,221.4219,293.9033,225.4219,283.9033,229.4219,287.9033,225.4219" style="stroke:#181818;stroke-width:1;"></polygon><line style="stroke:#181818;stroke-width:1;" x1="69.3115" x2="289.9033" y1="225.4219" y2="225.4219"></line><text fill="#000000" font-family="sans-serif" font-size="13" lengthAdjust="spacing" textLength="180.8003" x="76.3115" y="190.0903">Эксплуатация уязвимости</text><text fill="#000000" font-family="sans-serif" font-size="13" lengthAdjust="spacing" textLength="202.5918" x="76.3115" y="205.2231">Docker / побег из контейнера</text><text fill="#000000" font-family="sans-serif" font-size="13" lengthAdjust="spacing" textLength="110.5444" x="76.3115" y="220.356">/ доступ к хосту</text></g><g class="message" data-entity-1="part1" data-entity-2="part3" id="msg2"><polygon fill="#181818" points="407.1602,280.8203,417.1602,284.8203,407.1602,288.8203,411.1602,284.8203" style="stroke:#181818;stroke-width:1;"></polygon><line style="stroke:#181818;stroke-width:1;" x1="69.3115" x2="413.1602" y1="284.8203" y2="284.8203"></line><text fill="#000000" font-family="sans-serif" font-size="13" lengthAdjust="spacing" textLength="216.0615" x="76.3115" y="249.4888">DELETE /journal-index/_doc/&lt;id&gt;</text><text fill="#000000" font-family="sans-serif" font-size="13" lengthAdjust="spacing" textLength="158.9644" x="76.3115" y="264.6216">(Удаление safety_event</text><text fill="#000000" font-family="sans-serif" font-size="13" lengthAdjust="spacing" textLength="168.397" x="76.3115" y="279.7544">о нарушении маршрута)</text></g><g class="message" data-entity-1="part3" data-entity-2="part1" id="msg3"><polygon fill="#181818" points="80.3115,309.9531,70.3115,313.9531,80.3115,317.9531,76.3115,313.9531" style="stroke:#181818;stroke-width:1;"></polygon><line style="stroke:#181818;stroke-width:1;stroke-dasharray:2,2;" x1="74.3115" x2="418.1602" y1="313.9531" y2="313.9531"></line><text fill="#000000" font-family="sans-serif" font-size="13" lengthAdjust="spacing" textLength="47.7026" x="86.3115" y="308.8872">200 OK</text></g><path d="M424,326.9531 L424,396.9531 L604,396.9531 L604,336.9531 L594,326.9531 L424,326.9531" fill="#FFC0CB" style="stroke:#181818;stroke-width:0.5;"></path><path d="M594,326.9531 L594,336.9531 L604,336.9531 L594,326.9531" fill="#FFC0CB" style="stroke:#181818;stroke-width:0.5;"></path><text fill="#000000" font-family="sans-serif" font-size="13" lengthAdjust="spacing" textLength="147.5957" x="430" y="344.02">Запись об инциденте</text><text fill="#000000" font-family="sans-serif" font-size="13" lengthAdjust="spacing" textLength="159.8022" x="430" y="359.1528">безопасности удалена.</text><text fill="#000000" font-family="sans-serif" font-size="13" lengthAdjust="spacing" textLength="132.6089" x="430" y="374.2856">Оператор не видит</text><text fill="#000000" font-family="sans-serif" font-size="13" lengthAdjust="spacing" textLength="145.8882" x="430" y="389.4185">инцидент на панели.</text><rect fill="#EEEEEE" height="3" style="stroke:#EEEEEE;stroke-width:1;" width="820.7095" x="0" y="423.0508"></rect><line style="stroke:#000000;stroke-width:1;" x1="0" x2="820.7095" y1="423.0508" y2="423.0508"></line><line style="stroke:#000000;stroke-width:1;" x1="0" x2="820.7095" y1="426.0508" y2="426.0508"></line><rect fill="#EEEEEE" height="23.1328" style="stroke:#000000;stroke-width:2;" width="282.7153" x="268.9971" y="412.4844"></rect><text fill="#000000" font-family="sans-serif" font-size="13" font-weight="bold" lengthAdjust="spacing" textLength="264.1895" x="274.9971" y="428.5513">Альтернативный вектор: через API</text><g class="message" data-entity-1="part1" data-entity-2="part1" id="msg4"><line style="stroke:#181818;stroke-width:1;" x1="69.3115" x2="111.3115" y1="481.8828" y2="481.8828"></line><line style="stroke:#181818;stroke-width:1;" x1="111.3115" x2="111.3115" y1="481.8828" y2="494.8828"></line><line style="stroke:#181818;stroke-width:1;" x1="70.3115" x2="111.3115" y1="494.8828" y2="494.8828"></line><polygon fill="#181818" points="80.3115,490.8828,70.3115,494.8828,80.3115,498.8828,76.3115,494.8828" style="stroke:#181818;stroke-width:1;"></polygon><text fill="#000000" font-family="sans-serif" font-size="13" lengthAdjust="spacing" textLength="190.7852" x="76.3115" y="461.6841">Если есть доступ к Backend</text><text fill="#000000" font-family="sans-serif" font-size="13" lengthAdjust="spacing" textLength="167.4893" x="76.3115" y="476.8169">(через поддельный JWT)</text></g><path d="M74,507.8828 L74,592.8828 L307,592.8828 L307,517.8828 L297,507.8828 L74,507.8828" fill="#FEFFDD" style="stroke:#181818;stroke-width:0.5;"></path><path d="M297,507.8828 L297,517.8828 L307,517.8828 L297,507.8828" fill="#FEFFDD" style="stroke:#181818;stroke-width:0.5;"></path><text fill="#000000" font-family="sans-serif" font-size="13" lengthAdjust="spacing" textLength="148.9985" x="80" y="524.9497">Текущая реализация:</text><text fill="#000000" font-family="sans-serif" font-size="13" lengthAdjust="spacing" textLength="193.0576" x="80" y="540.0825">нет эндпоинтов DELETE/PUT</text><text fill="#000000" font-family="sans-serif" font-size="13" lengthAdjust="spacing" textLength="182.6094" x="80" y="555.2153">для логов. Но если бэкенд</text><text fill="#000000" font-family="sans-serif" font-size="13" lengthAdjust="spacing" textLength="212.1069" x="80" y="570.3481">скомпрометирован целиком —</text><text fill="#000000" font-family="sans-serif" font-size="13" lengthAdjust="spacing" textLength="158.1836" x="80" y="585.481">доступ к ES напрямую.</text><rect fill="#EEEEEE" height="3" style="stroke:#EEEEEE;stroke-width:1;" width="820.7095" x="0" y="619.1133"></rect><line style="stroke:#000000;stroke-width:1;" x1="0" x2="820.7095" y1="619.1133" y2="619.1133"></line><line style="stroke:#000000;stroke-width:1;" x1="0" x2="820.7095" y1="622.1133" y2="622.1133"></line><rect fill="#EEEEEE" height="23.1328" style="stroke:#000000;stroke-width:2;" width="115.8037" x="352.4529" y="608.5469"></rect><text fill="#000000" font-family="sans-serif" font-size="13" font-weight="bold" lengthAdjust="spacing" textLength="97.2778" x="358.4529" y="624.6138">Последствия</text><g class="message" data-entity-1="part4" data-entity-2="part5" id="msg5"><polygon fill="#181818" points="738.522,658.8125,748.522,662.8125,738.522,666.8125,742.522,662.8125" style="stroke:#181818;stroke-width:1;"></polygon><line style="stroke:#181818;stroke-width:1;" x1="518.1348" x2="744.522" y1="662.8125" y2="662.8125"></line><text fill="#000000" font-family="sans-serif" font-size="13" lengthAdjust="spacing" textLength="208.3872" x="525.1348" y="657.7466">Запрос событий безопасности</text></g><g class="message" data-entity-1="part5" data-entity-2="part3" id="msg6"><polygon fill="#181818" points="430.1602,687.9453,420.1602,691.9453,430.1602,695.9453,426.1602,691.9453" style="stroke:#181818;stroke-width:1;"></polygon><line style="stroke:#181818;stroke-width:1;" x1="424.1602" x2="749.522" y1="691.9453" y2="691.9453"></line><text fill="#000000" font-family="sans-serif" font-size="13" lengthAdjust="spacing" textLength="142.689" x="436.1602" y="686.8794">Запрос safety_events</text></g><g class="message" data-entity-1="part3" data-entity-2="part5" id="msg7"><polygon fill="#181818" points="738.522,717.0781,748.522,721.0781,738.522,725.0781,742.522,721.0781" style="stroke:#181818;stroke-width:1;"></polygon><line style="stroke:#181818;stroke-width:1;stroke-dasharray:2,2;" x1="419.1602" x2="744.522" y1="721.0781" y2="721.0781"></line><text fill="#000000" font-family="sans-serif" font-size="13" lengthAdjust="spacing" textLength="242.8042" x="426.1602" y="716.0122">Список БЕЗ удалённого инцидента</text></g><g class="message" data-entity-1="part5" data-entity-2="part4" id="msg8"><polygon fill="#181818" points="529.1348,746.2109,519.1348,750.2109,529.1348,754.2109,525.1348,750.2109" style="stroke:#181818;stroke-width:1;"></polygon><line style="stroke:#181818;stroke-width:1;stroke-dasharray:2,2;" x1="523.1348" x2="749.522" y1="750.2109" y2="750.2109"></line><text fill="#000000" font-family="sans-serif" font-size="13" lengthAdjust="spacing" textLength="191.2739" x="535.1348" y="745.145">Инцидент не отображается</text></g><g class="message" data-entity-1="part4" data-entity-2="part4" id="msg9"><line style="stroke:#181818;stroke-width:1;" x1="518.1348" x2="560.1348" y1="794.4766" y2="794.4766"></line><line style="stroke:#181818;stroke-width:1;" x1="560.1348" x2="560.1348" y1="794.4766" y2="807.4766"></line><line style="stroke:#181818;stroke-width:1;" x1="519.1348" x2="560.1348" y1="807.4766" y2="807.4766"></line><polygon fill="#181818" points="529.1348,803.4766,519.1348,807.4766,529.1348,811.4766,525.1348,807.4766" style="stroke:#181818;stroke-width:1;"></polygon><text fill="#000000" font-family="sans-serif" font-size="13" lengthAdjust="spacing" textLength="213.7764" x="525.1348" y="774.2778">Ложное чувство безопасности.</text><text fill="#000000" font-family="sans-serif" font-size="13" lengthAdjust="spacing" textLength="185.3643" x="525.1348" y="789.4106">Инцидент не расследован.</text></g><!--?plantuml-src TLHTJnDH47tVNp4fB_10I_J9nf9Wg8aV4H8mlZGXQxj01RVDTlrwesrK36Z5I30nQjHdarAwi9Hs-nVc_WL_YMVkxfP-o0EXUsVkcJDdpbotw6vRnB_vHErmm6VSfEjf-Mvpao_Ounxxx944kC--gkBed71sHdogwhZKqubDcburdvOjfsXlp1Y6cNTB3YNu2A50rRchzjHkX2U8dGIP5LfmNJE_PJaqvLW5esmwRZ5VB9ksIud5aWuyiDmN9MTBPuT7Hi5qpSTcnQ94TjkiuCQAPJhvpPmz3OA1sb4rkd5jRcv6tyck3AXyHzW3twQgIPeEBu6mYV1exTk0NLY-GxU4d5tGcT5lmyXaY3-XZqu8GngloHts8LiVvHlSXP3Gg8ruLTNGVP-u0ogKoHZ6eEVP-QWZmiK_mAk2u0MoDQ1w0x4R18KRqBu5oReX7FivExgN8kcOZy7c91f91zyz9658q5ctcxDJ4rpKw_Xxb10ufcanUp-xcgNKaz8pnpQtPujsmNgPMYkKygcRnSAy23rkZugvRhclrgpdbktcR0v8N04jwXXwcECJ6f2ZNNsC3k4Ib9j5rG63D65mj7JFCEoIQv5JtDXqgRGkjARAHNlB88AZ8YEgVPBcfV6Ug0LANjYxf8aePuZtKRGA1f5s47I8UZCfgMF64EumV4iZ-gecAMCbT7iYVbDo0UOd3PY3X7Nea8-OvBvm2HT4IWEnf_R46ArB-wH9lTL9O4lYkN6B36d3X-ZaGfJqzEps9yOQcHGJ6aBL7cbhwk0KSRZxQ7LcNEMub3JyIrEigtVW3XSAaeZcopiGMZCjQMAn6gdt-D7MTNmzWO1RaOjIomzN9R6DsWsInu1F99ma_YOsyUAMZW7IqKDf8n-dukIkB9J-xuc2-dTBH2TmqBg7QVHtvtDOPNpZzEiKRINQ-J0-fnzoGxkXhGtIqbidGuYV1Xb2fAlCu2Z4asl24WR4ooRJFR_ISqPyFLwm4P3XrQd46p5Ky6Vqx0PeY0_ua8y67bO7-ZNLaawkGVEoBX07xG3oowIROVX03-vO5e5FyGV9mRyngiGmp5Uad-hw7bmCKgr8mk1AAP9u7FvRNQzVDHv5FEQayGy0?--></g></svg>