<?xml version="1.0" encoding="UTF-8" standalone="yes"?>
<svg xmlns="http://www.w3.org/2000/svg" xmlns:xlink="http://www.w3.org/1999/xlink" contentstyletype="text/css" data-diagram-type="SEQUENCE" height="935px" preserveAspectRatio="none" style="width:935px;height:935px;background:#FFFFFF;" version="1.1" viewBox="0 0 935 935" width="935px" zoomAndPan="magnify" xmlns:xhtml="http://www.w3.org/1999/xhtml"><style>
             .markmap-foreign div { color: #333 !important; }
             .markmap-foreign strong { font-weight: bold !important; }
             .markmap-foreign table { border-collapse: collapse !important; }
             .markmap-foreign th, .markmap-foreign td { border: 1px solid #333 !important; padding: 3px !important; }
             .markmap-node > circle { fill: #fff !important; }</style><title>Угроза 5: DoS через массовую отправку логов</title><defs></defs><g><text fill="#000000" font-family="sans-serif" font-size="14" font-weight="bold" lengthAdjust="spacing" textLength="376.7217" x="275.251" y="27.9951">Угроза 5: DoS через массовую отправку логов</text><rect fill="none" height="207.1953" style="stroke:#000000;stroke-width:1.5;" width="689.9844" x="10" y="178.7266"></rect><g class="participant-lifeline" data-entity-uid="part1" data-qualified-name="Attacker" id="part1-lifeline"><g><title>.............</title><rect fill="#000000" fill-opacity="0.00000" height="735.7188" width="8" x="80.3115" y="118.5938"></rect><line style="stroke:#181818;stroke-width:0.5;stroke-dasharray:5,5;" x1="84" x2="84" y1="118.5938" y2="854.3125"></line></g></g><g class="participant-lifeline" data-entity-uid="part2" data-qualified-name="Nginx" id="part2-lifeline"><g><title>Nginx</title><rect fill="#000000" fill-opacity="0.00000" height="735.7188" width="8" x="258.9976" y="118.5938"></rect><line style="stroke:#181818;stroke-width:0.5;stroke-dasharray:5,5;" x1="262.7939" x2="262.7939" y1="118.5938" y2="854.3125"></line></g></g><g class="participant-lifeline" data-entity-uid="part3" data-qualified-name="Backend" id="part3-lifeline"><g><title>FastAPI Backend</title><rect fill="#000000" fill-opacity="0.00000" height="735.7188" width="8" x="440.5527" y="118.5938"></rect><line style="stroke:#181818;stroke-width:0.5;stroke-dasharray:5,5;" x1="444.3652" x2="444.3652" y1="118.5938" y2="854.3125"></line></g></g><g class="participant-lifeline" data-entity-uid="part4" data-qualified-name="ES" id="part4-lifeline"><g><title>ElasticSearch</title><rect fill="#000000" fill-opacity="0.00000" height="735.7188" width="8" x="635.9395" y="118.5938"></rect><line style="stroke:#181818;stroke-width:0.5;stroke-dasharray:5,5;" x1="639.8945" x2="639.8945" y1="118.5938" y2="854.3125"></line></g></g><g class="participant-lifeline" data-entity-uid="part5" data-qualified-name="Operator" id="part5-lifeline"><g><title>........</title><rect fill="#000000" fill-opacity="0.00000" height="735.7188" width="8" x="734.9141" y="118.5938"></rect><line style="stroke:#181818;stroke-width:0.5;stroke-dasharray:5,5;" x1="737.9844" x2="737.9844" y1="118.5938" y2="854.3125"></line></g></g><g class="participant participant-head" data-entity-uid="part1" data-qualified-name="Attacker" id="part1-head"><text fill="#000000" font-family="sans-serif" font-size="14" lengthAdjust="spacing" textLength="122.623" x="20" y="115.292">Злоумышленник</text><ellipse cx="84.3115" cy="50.7969" fill="#FF0000" rx="8" ry="8" style="stroke:#181818;stroke-width:0.5;"></ellipse><path d="M84.3115,58.7969 L84.3115,85.7969 M71.3115,66.7969 L97.3115,66.7969 M84.3115,85.7969 L71.3115,100.7969 M84.3115,85.7969 L97.3115,100.7969" fill="none" style="stroke:#181818;stroke-width:0.5;"></path></g><g class="participant participant-tail" data-entity-uid="part1" data-qualified-name="Attacker" id="part1-tail"><text fill="#000000" font-family="sans-serif" font-size="14" lengthAdjust="spacing" textLength="122.623" x="20" y="866.3076">Злоумышленник</text><ellipse cx="84.3115" cy="878.1094" fill="#FF0000" rx="8" ry="8" style="stroke:#181818;stroke-width:0.5;"></ellipse><path d="M84.3115,886.1094 L84.3115,913.1094 M71.3115,894.1094 L97.3115,894.1094 M84.3115,913.1094 L71.3115,928.1094 M84.3115,913.1094 L97.3115,928.1094" fill="none" style="stroke:#181818;stroke-width:0.5;"></path></g><g class="participant participant-head" data-entity-uid="part2" data-qualified-name="Nginx" id="part2-head"><rect fill="#E2E2F0" height="30.2969" rx="2.5" ry="2.5" style="stroke:#181818;stroke-width:0.5;" width="54.4072" x="235.7939" y="87.2969"></rect><text fill="#000000" font-family="sans-serif" font-size="14" lengthAdjust="spacing" textLength="40.4072" x="242.7939" y="107.292">Nginx</text></g><g class="participant participant-tail" data-entity-uid="part2" data-qualified-name="Nginx" id="part2-tail"><rect fill="#E2E2F0" height="30.2969" rx="2.5" ry="2.5" style="stroke:#181818;stroke-width:0.5;" width="54.4072" x="235.7939" y="853.3125"></rect><text fill="#000000" font-family="sans-serif" font-size="14" lengthAdjust="spacing" textLength="40.4072" x="242.7939" y="873.3076">Nginx</text></g><g class="participant participant-head" data-entity-uid="part3" data-qualified-name="Backend" id="part3-head"><rect fill="#E2E2F0" height="30.2969" rx="2.5" ry="2.5" style="stroke:#181818;stroke-width:0.5;" width="130.375" x="379.3652" y="87.2969"></rect><text fill="#000000" font-family="sans-serif" font-size="14" lengthAdjust="spacing" textLength="116.375" x="386.3652" y="107.292">FastAPI Backend</text></g><g class="participant participant-tail" data-entity-uid="part3" data-qualified-name="Backend" id="part3-tail"><rect fill="#E2E2F0" height="30.2969" rx="2.5" ry="2.5" style="stroke:#181818;stroke-width:0.5;" width="130.375" x="379.3652" y="853.3125"></rect><text fill="#000000" font-family="sans-serif" font-size="14" lengthAdjust="spacing" textLength="116.375" x="386.3652" y="873.3076">FastAPI Backend</text></g><g class="participant participant-head" data-entity-uid="part4" data-qualified-name="ES" id="part4-head"><text fill="#000000" font-family="sans-serif" font-size="14" lengthAdjust="spacing" textLength="94.0898" x="589.8945" y="115.292">ElasticSearch</text><path d="M621.9395,66.2969 C621.9395,56.2969 639.9395,56.2969 639.9395,56.2969 C639.9395,56.2969 657.9395,56.2969 657.9395,66.2969 L657.9395,92.2969 C657.9395,102.2969 639.9395,102.2969 639.9395,102.2969 C639.9395,102.2969 621.9395,102.2969 621.9395,92.2969 L621.9395,66.2969" fill="#E2E2F0" style="stroke:#181818;stroke-width:0.5;"></path><path d="M621.9395,66.2969 C621.9395,76.2969 639.9395,76.2969 639.9395,76.2969 C639.9395,76.2969 657.9395,76.2969 657.9395,66.2969" fill="none" style="stroke:#181818;stroke-width:0.5;"></path></g><g class="participant participant-tail" data-entity-uid="part4" data-qualified-name="ES" id="part4-tail"><text fill="#000000" font-family="sans-serif" font-size="14" lengthAdjust="spacing" textLength="94.0898" x="589.8945" y="866.3076">ElasticSearch</text><path d="M621.9395,879.6094 C621.9395,869.6094 639.9395,869.6094 639.9395,869.6094 C639.9395,869.6094 657.9395,869.6094 657.9395,879.6094 L657.9395,905.6094 C657.9395,915.6094 639.9395,915.6094 639.9395,915.6094 C639.9395,915.6094 621.9395,915.6094 621.9395,905.6094 L621.9395,879.6094" fill="#E2E2F0" style="stroke:#181818;stroke-width:0.5;"></path><path d="M621.9395,879.6094 C621.9395,889.6094 639.9395,889.6094 639.9395,889.6094 C639.9395,889.6094 657.9395,889.6094 657.9395,879.6094" fill="none" style="stroke:#181818;stroke-width:0.5;"></path></g><g class="participant participant-head" data-entity-uid="part5" data-qualified-name="Operator" id="part5-head"><text fill="#000000" font-family="sans-serif" font-size="14" lengthAdjust="spacing" textLength="71.8594" x="699.9844" y="115.292">Оператор</text><ellipse cx="738.9141" cy="50.7969" fill="#E2E2F0" rx="8" ry="8" style="stroke:#181818;stroke-width:0.5;"></ellipse><path d="M738.9141,58.7969 L738.9141,85.7969 M725.9141,66.7969 L751.9141,66.7969 M738.9141,85.7969 L725.9141,100.7969 M738.9141,85.7969 L751.9141,100.7969" fill="none" style="stroke:#181818;stroke-width:0.5;"></path></g><g class="participant participant-tail" data-entity-uid="part5" data-qualified-name="Operator" id="part5-tail"><text fill="#000000" font-family="sans-serif" font-size="14" lengthAdjust="spacing" textLength="71.8594" x="699.9844" y="866.3076">Оператор</text><ellipse cx="738.9141" cy="878.1094" fill="#E2E2F0" rx="8" ry="8" style="stroke:#181818;stroke-width:0.5;"></ellipse><path d="M738.9141,886.1094 L738.9141,913.1094 M725.9141,894.1094 L751.9141,894.1094 M738.9141,913.1094 L725.9141,928.1094 M738.9141,913.1094 L751.9141,928.1094" fill="none" style="stroke:#181818;stroke-width:0.5;"></path></g><rect fill="#EEEEEE" height="3" style="stroke:#EEEEEE;stroke-width:1;" width="928.2236" x="0" y="149.1602"></rect><line style="stroke:#000000;stroke-width:1;" x1="0" x2="928.2236" y1="149.1602" y2="149.1602"></line><line style="stroke:#000000;stroke-width:1;" x1="0" x2="928.2236" y1="152.1602" y2="152.1602"></line><rect fill="#EEEEEE" height="23.1328" style="stroke:#000000;stroke-width:2;" width="197.8916" x="365.166" y="138.5938"></rect><text fill="#000000" font-family="sans-serif" font-size="13" font-weight="bold" lengthAdjust="spacing" textLength="179.3657" x="371.166" y="154.6606">Атака: флуд запросами</text><path d="M10,178.7266 L86.624,178.7266 L86.624,185.8594 L76.624,195.8594 L10,195.8594 L10,178.7266" fill="#EEEEEE" style="stroke:#000000;stroke-width:1.5;"></path><rect fill="none" height="207.1953" style="stroke:#000000;stroke-width:1.5;" width="689.9844" x="10" y="178.7266"></rect><text fill="#000000" font-family="sans-serif" font-size="13" font-weight="bold" lengthAdjust="spacing" textLength="31.624" x="25" y="191.7935">loop</text><text fill="#000000" font-family="sans-serif" font-size="11" font-weight="bold" lengthAdjust="spacing" textLength="184.9536" x="101.624" y="190.937">[Тысячи запросов в секунду]</text><g class="message" data-entity-1="part1" data-entity-2="part2" id="msg1"><polygon fill="#181818" points="250.9976,243.2578,260.9976,247.2578,250.9976,251.2578,254.9976,247.2578" style="stroke:#181818;stroke-width:1;"></polygon><line style="stroke:#181818;stroke-width:1;" x1="84.3115" x2="256.9976" y1="247.2578" y2="247.2578"></line><text fill="#000000" font-family="sans-serif" font-size="13" lengthAdjust="spacing" textLength="154.686" x="91.3115" y="211.9263">POST /api/log/telemetry</text><text fill="#000000" font-family="sans-serif" font-size="13" lengthAdjust="spacing" textLength="138.2964" x="91.3115" y="227.0591">[X-API-Key: &lt;ключ&gt;]</text><text fill="#000000" font-family="sans-serif" font-size="13" lengthAdjust="spacing" textLength="144.1108" x="91.3115" y="242.1919">[Body: 1000 записей]</text></g><g class="message" data-entity-1="part2" data-entity-2="part3" id="msg2"><polygon fill="#181818" points="432.5527,272.3906,442.5527,276.3906,432.5527,280.3906,436.5527,276.3906" style="stroke:#181818;stroke-width:1;"></polygon><line style="stroke:#181818;stroke-width:1;" x1="262.9976" x2="438.5527" y1="276.3906" y2="276.3906"></line><text fill="#000000" font-family="sans-serif" font-size="13" lengthAdjust="spacing" textLength="106.209" x="269.9976" y="271.3247">Проксирование</text></g><g class="message" data-entity-1="part3" data-entity-2="part3" id="msg3"><line style="stroke:#181818;stroke-width:1;" x1="444.5527" x2="486.5527" y1="320.6563" y2="320.6563"></line><line style="stroke:#181818;stroke-width:1;" x1="486.5527" x2="486.5527" y1="320.6563" y2="333.6563"></line><line style="stroke:#181818;stroke-width:1;" x1="445.5527" x2="486.5527" y1="333.6563" y2="333.6563"></line><polygon fill="#181818" points="455.5527,329.6563,445.5527,333.6563,455.5527,337.6563,451.5527,333.6563" style="stroke:#181818;stroke-width:1;"></polygon><text fill="#000000" font-family="sans-serif" font-size="13" lengthAdjust="spacing" textLength="172.4849" x="451.5527" y="300.4575">Валидация 1000 записей</text><text fill="#000000" font-family="sans-serif" font-size="13" lengthAdjust="spacing" textLength="83.5161" x="451.5527" y="315.5903">(CPU load ↑)</text></g><g class="message" data-entity-1="part3" data-entity-2="part4" id="msg4"><polygon fill="#181818" points="627.9395,373.9219,637.9395,377.9219,627.9395,381.9219,631.9395,377.9219" style="stroke:#181818;stroke-width:1;"></polygon><line style="stroke:#181818;stroke-width:1;" x1="444.5527" x2="633.9395" y1="377.9219" y2="377.9219"></line><text fill="#000000" font-family="sans-serif" font-size="13" lengthAdjust="spacing" textLength="171.3867" x="451.5527" y="357.7231">Запись 1000 документов</text><text fill="#000000" font-family="sans-serif" font-size="13" lengthAdjust="spacing" textLength="124.9854" x="451.5527" y="372.856">(I/O load ↑, disk ↑)</text></g><path d="M644,397.9219 L644,467.9219 L835,467.9219 L835,407.9219 L825,397.9219 L644,397.9219" fill="#FFC0CB" style="stroke:#181818;stroke-width:0.5;"></path><path d="M825,397.9219 L825,407.9219 L835,407.9219 L825,397.9219" fill="#FFC0CB" style="stroke:#181818;stroke-width:0.5;"></path><text fill="#000000" font-family="sans-serif" font-size="13" lengthAdjust="spacing" textLength="91.749" x="650" y="414.9888">ElasticSearch:</text><text fill="#000000" font-family="sans-serif" font-size="13" lengthAdjust="spacing" textLength="111.1982" x="650" y="430.1216">- Диск заполнен</text><text fill="#000000" font-family="sans-serif" font-size="13" lengthAdjust="spacing" textLength="170.6948" x="650" y="445.2544">- Индексация замедлена</text><text fill="#000000" font-family="sans-serif" font-size="13" lengthAdjust="spacing" textLength="138.0615" x="650" y="460.3872">- Поиск не работает</text><path d="M449,478.4531 L449,548.4531 L716,548.4531 L716,488.4531 L706,478.4531 L449,478.4531" fill="#FFC0CB" style="stroke:#181818;stroke-width:0.5;"></path><path d="M706,478.4531 L706,488.4531 L716,488.4531 L706,478.4531" fill="#FFC0CB" style="stroke:#181818;stroke-width:0.5;"></path><text fill="#000000" font-family="sans-serif" font-size="13" lengthAdjust="spacing" textLength="60.4297" x="455" y="495.52">Backend:</text><text fill="#000000" font-family="sans-serif" font-size="13" lengthAdjust="spacing" textLength="210.3359" x="455" y="510.6528">- CPU перегружен валидацией</text><text fill="#000000" font-family="sans-serif" font-size="13" lengthAdjust="spacing" textLength="184.7549" x="455" y="525.7856">- Очередь запросов растёт</text><text fill="#000000" font-family="sans-serif" font-size="13" lengthAdjust="spacing" textLength="246.0605" x="455" y="540.9185">- Timeout для легитимных запросов</text><rect fill="#EEEEEE" height="3" style="stroke:#EEEEEE;stroke-width:1;" width="928.2236" x="0" y="574.5508"></rect><line style="stroke:#000000;stroke-width:1;" x1="0" x2="928.2236" y1="574.5508" y2="574.5508"></line><line style="stroke:#000000;stroke-width:1;" x1="0" x2="928.2236" y1="577.5508" y2="577.5508"></line><rect fill="#EEEEEE" height="23.1328" style="stroke:#000000;stroke-width:2;" width="115.8037" x="406.21" y="563.9844"></rect><text fill="#000000" font-family="sans-serif" font-size="13" font-weight="bold" lengthAdjust="spacing" textLength="97.2778" x="412.21" y="580.0513">Последствия</text><g class="message" data-entity-1="part5" data-entity-2="part2" id="msg5"><polygon fill="#181818" points="273.9976,614.25,263.9976,618.25,273.9976,622.25,269.9976,618.25" style="stroke:#181818;stroke-width:1;"></polygon><line style="stroke:#181818;stroke-width:1;" x1="267.9976" x2="737.9141" y1="618.25" y2="618.25"></line><text fill="#000000" font-family="sans-serif" font-size="13" lengthAdjust="spacing" textLength="126.9468" x="279.9976" y="613.1841">GET /api/log/events</text></g><g class="message" data-entity-1="part2" data-entity-2="part3" id="msg6"><polygon fill="#181818" points="432.5527,643.3828,442.5527,647.3828,432.5527,651.3828,436.5527,647.3828" style="stroke:#181818;stroke-width:1;"></polygon><line style="stroke:#181818;stroke-width:1;" x1="262.9976" x2="438.5527" y1="647.3828" y2="647.3828"></line><text fill="#000000" font-family="sans-serif" font-size="13" lengthAdjust="spacing" textLength="106.209" x="269.9976" y="642.3169">Проксирование</text></g><g class="message" data-entity-1="part3" data-entity-2="part4" id="msg7"><polygon fill="#181818" points="627.9395,672.5156,637.9395,676.5156,627.9395,680.5156,631.9395,676.5156" style="stroke:#181818;stroke-width:1;"></polygon><line style="stroke:#181818;stroke-width:1;" x1="444.5527" x2="633.9395" y1="676.5156" y2="676.5156"></line><text fill="#000000" font-family="sans-serif" font-size="13" lengthAdjust="spacing" textLength="48.1533" x="451.5527" y="671.4497">Запрос</text></g><g class="message" data-entity-1="part4" data-entity-2="part3" id="msg8"><polygon fill="#181818" points="455.5527,701.6484,445.5527,705.6484,455.5527,709.6484,451.5527,705.6484" style="stroke:#181818;stroke-width:1;"></polygon><line style="stroke:#181818;stroke-width:1;stroke-dasharray:2,2;" x1="449.5527" x2="638.9395" y1="705.6484" y2="705.6484"></line><text fill="#000000" font-family="sans-serif" font-size="13" lengthAdjust="spacing" textLength="90.9619" x="461.5527" y="700.5825">Timeout / 503</text></g><g class="message" data-entity-1="part3" data-entity-2="part2" id="msg9"><polygon fill="#181818" points="273.9976,730.7813,263.9976,734.7813,273.9976,738.7813,269.9976,734.7813" style="stroke:#181818;stroke-width:1;"></polygon><line style="stroke:#181818;stroke-width:1;stroke-dasharray:2,2;" x1="267.9976" x2="443.5527" y1="734.7813" y2="734.7813"></line><text fill="#000000" font-family="sans-serif" font-size="13" lengthAdjust="spacing" textLength="157.5552" x="279.9976" y="729.7153">503 Service Unavailable</text></g><g class="message" data-entity-1="part2" data-entity-2="part5" id="msg10"><polygon fill="#181818" points="726.9141,759.9141,736.9141,763.9141,726.9141,767.9141,730.9141,763.9141" style="stroke:#181818;stroke-width:1;"></polygon><line style="stroke:#181818;stroke-width:1;stroke-dasharray:2,2;" x1="262.9976" x2="732.9141" y1="763.9141" y2="763.9141"></line><text fill="#000000" font-family="sans-serif" font-size="13" lengthAdjust="spacing" textLength="24.813" x="269.9976" y="758.8481">503</text></g><g class="message" data-entity-1="part5" data-entity-2="part5" id="msg11"><line style="stroke:#181818;stroke-width:1;" x1="738.9141" x2="780.9141" y1="823.3125" y2="823.3125"></line><line style="stroke:#181818;stroke-width:1;" x1="780.9141" x2="780.9141" y1="823.3125" y2="836.3125"></line><line style="stroke:#181818;stroke-width:1;" x1="739.9141" x2="780.9141" y1="836.3125" y2="836.3125"></line><polygon fill="#181818" points="749.9141,832.3125,739.9141,836.3125,749.9141,840.3125,745.9141,836.3125" style="stroke:#181818;stroke-width:1;"></polygon><text fill="#000000" font-family="sans-serif" font-size="13" lengthAdjust="spacing" textLength="175.3096" x="745.9141" y="787.981">Инфопанель недоступна.</text><text fill="#000000" font-family="sans-serif" font-size="13" lengthAdjust="spacing" textLength="157.4028" x="745.9141" y="803.1138">События безопасности</text><text fill="#000000" font-family="sans-serif" font-size="13" lengthAdjust="spacing" textLength="125.6392" x="745.9141" y="818.2466">не отображаются.</text></g><!--?plantuml-src bLJTJXD16BtVf_XIRZInjCPmqrWIq6g8YP0K4XFXOcX7sB3iDjkLo1rj4Kmm8CO4ho3g2oobXThIyWeph-2JUBxPtTe2Dm8Nmtpd-pddExE17JYIr2zreNVKG5sfaAPozDmhajvNRTorrHMfQnNgcgu1qDGDVKXgeElg1j5GDLLNDqZr4BlWk6M9Kk3vb58dVAaRwbeVw4yujrKVlntLJP6eqamGYDA6z6d2bsMh8lp0BjaLuGQKUhrcknyCo9p6Woz4DPXPcADPpdRB1XQVhR88nAgeIaeL7C3iKb4AlxHkC8NYSB1JTMEeXI0nq3icF5-Hla3Oil9vKbyG2LLNXJdIkwe74YrYRGpd0OG88Kc7yddBSZolGkedEDRq4JJhZ0EX2E4FfpOB1G5Qkc4HVeO2fASZdfIZXVdY8cL4nSuutbeca8xSb86_lUo-VPC6wVGhkPsZfnYifm_r_lGA0hDU6NUFizbit5XrJBFVAwPBL1ajOetGH9sPLNS1wvXJ4scycBR9I83ZEL-1wG7JWcfxo3kwh-Mo--3PmX8vdYZJdxtZXxVh5OfSwYH9qP_Z8Yqp3fp27k6bg2PApMNcXwKUKTckRaH5UTEMwmMIV7jjFI3l7HUUgDZk1XgERJw7YpIfRsR0RZBj04pwt2gAVkUbcFNKXkGCaiTfnSOD8-mPakDQg43c1PoRrn32KdMUZNYqsmCc8YHJnlz7yx5ciINR_0wXn2Kt9REP4TLPusYEq-7hR475EuupvgxfkZx6J9omQ6zAxtt0KlUO7fEw09CwYbv3ymFzyKwL4JBy9ixCVS-qH6dCnaBn4qZUpgYJNnP6Z2otf1jKhV_puls-YSQpS9CUAvGGpD1KzedrBtba90IeAFqjkoHfoHLRmdR4gYEJiO0S4ib5LKQ9ZSJOCVWi3B2pq1Yfnple6xSCZEmDXE2PoMLN_G3k7FhM8r-TymSrIWNdVeHN7G3PJyP9Z6TVNG9oY6BuhanQVm40?--></g></svg>